<svg width="700" height="700" viewBox="0 0 700 700" fill="none" xmlns="http://www.w3.org/2000/svg">
<circle cx="350" cy="350" r="346.5" fill="#F5F5F5" stroke="#DFDFDF" stroke-width="7"/>
<g clip-path="url(#clip0_14:3)">
<mask id="mask0_14:3" style="mask-type:alpha" maskUnits="userSpaceOnUse" x="12" y="19" width="674" height="674">
<circle cx="349" cy="356" r="337" fill="#F5F5F5"/>
</mask>
<g mask="url(#mask0_14:3)">
<path d="M350.004 384.401H347.785V382.09H350.004V384.401Z" fill="#887562"/>
<path d="M569.413 613.843C564.338 602.874 550.474 586.62 535.07 582.13C516.029 576.576 473.047 569.862 457.11 566.13C444.334 563.135 418.602 540.028 409.584 532.272C407.967 530.886 406.642 528.022 406.61 525.894C406.289 500.786 416.305 434.087 416.305 434.087H348.895H281.487C281.487 434.087 291.503 500.783 291.177 525.894C291.152 528.022 289.821 530.886 288.208 532.272C279.19 540.028 253.458 563.135 240.682 566.13C224.742 569.862 181.76 576.805 162.722 582.358C147.313 586.847 133.454 602.872 128.379 613.84C119.809 632.348 117.785 665.84 117.785 694.729H348.895H580.005C580.005 665.842 577.978 632.35 569.413 613.843Z" fill="#E5C1AD"/>
<path d="M485.61 577.512C541.867 585.698 565.542 597.637 572.956 694.733H580.005C580.005 665.845 577.978 632.352 569.413 613.845C564.338 602.876 550.474 586.622 535.07 582.132C516.029 576.578 473.047 569.865 457.11 566.132C444.334 563.137 414.951 538.239 407.091 528.346C414.856 539.217 436.652 564.41 455.749 571.009C464.884 574.166 472.493 575.603 485.61 577.512ZM242.043 571.009C261.14 564.413 282.934 539.217 290.701 528.346C282.843 538.237 253.46 563.137 240.682 566.132C224.745 569.865 181.763 576.807 162.722 582.361C147.318 586.849 133.454 602.874 128.379 613.843C119.814 632.35 117.787 665.842 117.787 694.731H124.836C132.203 598.256 155.978 585.686 212.182 577.51C225.297 575.603 232.907 574.166 242.043 571.009Z" fill="#F4DED1"/>
<path d="M338.832 608.855C338.832 608.855 327.106 605.137 322.463 603.357C298.314 594.092 219.861 588.088 219.861 588.088C219.861 588.088 302.492 591.367 320.727 594.51C319.669 583.493 313.754 548.279 313.754 548.279C313.754 548.279 325.654 587.14 328.566 596.944C330.124 602.185 338.832 608.855 338.832 608.855ZM363.79 605.754C363.584 605.922 363.348 606.142 363.092 606.373C363.353 606.177 363.589 605.971 363.79 605.754ZM338.832 608.855C338.832 608.855 345.518 615.77 348.879 615.858C353.293 615.976 360.037 609.158 363.094 606.373C360.171 608.585 353.482 609.588 350.822 609.692C347.748 609.81 338.832 608.855 338.832 608.855ZM387.407 591.478C383.836 592.051 377.27 593.301 377.27 593.301L382.556 558.889C381.063 565.987 372.216 596.354 363.79 605.754C368.204 602.019 378.022 600.228 383.027 599.504C406.684 596.075 406.675 596.077 477.926 588.088C477.926 588.088 410.74 587.729 387.407 591.478Z" fill="#D6A68C"/>
<path d="M569.413 613.843C564.338 602.874 550.474 586.62 535.07 582.13C516.029 576.576 473.047 569.862 457.11 566.13C444.334 563.135 418.602 540.028 409.584 532.272C407.967 530.886 406.642 528.022 406.61 525.894C406.289 500.786 416.305 434.087 416.305 434.087H348.895H281.487C281.487 434.087 291.503 500.783 291.177 525.894C291.152 528.022 289.821 530.886 288.208 532.272C279.19 540.028 253.458 563.135 240.682 566.13C224.742 569.862 181.76 576.805 162.722 582.358C147.313 586.847 133.454 602.872 128.379 613.84C119.809 632.348 117.785 665.84 117.785 694.729H348.895H580.005C580.005 665.842 577.978 632.35 569.413 613.843Z" stroke="#B77753" stroke-width="3.825"/>
<path d="M358.59 551.799C368.414 546.167 386.885 534.401 404.911 521.269C405.29 506.679 407.886 483.66 410.296 464.885C374.948 460.621 323.477 460.552 287.463 464.652C289.925 483.815 292.589 507.456 292.888 522.053C311.127 534.861 329.599 546.273 339.216 551.796C343.277 554.126 354.529 554.126 358.59 551.799Z" fill="url(#paint0_linear_14:3)"/>
<path d="M216.63 696.994L219.688 556.359C219.688 556.359 243.247 550.611 258.133 541.769C298.568 592.504 418.642 581.827 439.176 540.336C442.617 541.549 445.464 543.102 449.026 544.295C460.581 552.12 470.318 554.681 470.318 554.681L472.479 697.241C439.462 697.675 216.63 696.994 216.63 696.994Z" fill="#F5F4F5"/>
<path d="M473.727 562.83C463.937 561.168 456.137 558.908 451.882 554.639C439.534 577.808 390.03 592.49 373.64 594.642C421.142 580.137 441.096 569.652 448.977 544.761C453.576 550.269 464.05 552.963 477.434 555.249L473.727 562.83ZM239.51 555.147C242.871 554.426 244.548 552.296 247.883 551.466L244.352 547.151C237.155 552.314 223.619 554.789 207.606 557.375L208.04 566.014C217.183 564.188 226.106 561.882 234.454 558.334C251.748 577.944 278.753 587.591 306.236 591.584C271.759 583.299 251.99 569.314 239.51 555.147Z" fill="white"/>
<path d="M436.395 545.15C422.693 571.406 319.13 601.991 260.731 547.151C257.1 548.572 246.238 551.97 246.238 551.97C288.776 605.31 413.435 605.65 446.615 551.711C446.472 551.655 439.77 546.726 436.395 545.15Z" fill="#DFDDE2"/>
<path d="M439.046 540.033C415.734 582.962 294.422 589.037 258.228 541.477C245.008 545.073 232.3 552.746 219.503 554.667L216.63 696.994L472.476 697.241L470.5 553.061C462.714 551.427 455.476 546.735 449.113 544.061C445.596 542.584 442.61 541.255 439.046 540.033ZM257.352 542.912C289.483 596.267 416.395 585.564 440.897 543.141C443.87 544.295 444.63 544.75 448.076 545.875C422.695 594.889 297.147 610.51 245.796 548.526C246.157 548.434 253.73 544.165 257.352 542.912ZM243.247 550.611C284.762 613.117 421.803 603.433 450.283 547.636C454.376 550.851 460.752 554.544 468.624 556.268L472.46 692.808L217.368 692.845L221.768 558.11C228.202 554.877 238.533 552.492 243.247 550.611Z" fill="#B8B6C9"/>
<path d="M107.318 696.552C101.369 664.539 102.02 586.562 128.147 586.726C158.506 574.452 195.791 560.371 227.067 551.341C243.032 534.595 258.119 518.669 287.59 502.082C288.489 508.089 291.921 521.821 287.616 529.291C284.484 534.727 274.251 542.178 265.536 548.63C260.846 554.916 256.46 561.05 250.285 569.636C262.228 621.176 272.474 647.705 273.62 692.408C273.62 692.408 270.264 694.001 422.619 693.326C427.738 641.698 434.158 615.763 446.606 568.3C446.606 568.3 436.65 556.712 429.95 547.8C425.203 543.185 410.629 530.393 409.52 527.807C406.804 521.472 408.253 513.506 409.774 501.537C434.718 512.799 449.063 529.319 470.052 550.77C487.915 555.667 541.373 573.805 568.147 585.936C577.31 585.682 582.483 590.556 586.34 598.568C598.831 624.441 595.875 661.655 591.378 697.458C547.257 697.53 233.078 702.57 107.318 696.552Z" fill="#82CBE2"/>
<path d="M288.517 508.232C288.887 510.705 289.22 513.051 289.467 515.26C288.963 515.875 249.688 569.231 249.402 569.629C259.053 547.676 272.859 524.927 288.517 508.232ZM409.106 508.232C408.738 510.705 408.681 513.051 408.433 515.26C408.937 515.875 447.563 567.188 447.847 567.588C437.62 547.135 424.764 524.927 409.106 508.232ZM499.135 580.045C489.243 594.445 487.131 599.417 476.304 613.688C478.779 613.688 482.772 614.071 485.247 614.071C493.715 599.546 493.732 592.153 499.135 580.045ZM509.271 684.565C518.037 663.996 525.297 645.944 534.09 625.345L531.208 620.69C523.885 641.848 516.112 663.349 509.271 684.565ZM212.651 614.071C215.126 614.071 219.119 613.688 221.597 613.688C210.769 599.417 208.657 598.525 198.768 584.124C204.167 596.232 204.183 599.546 212.651 614.071ZM166.69 620.69L163.808 625.345C172.604 645.944 174.82 663.996 183.589 684.565C176.745 663.349 174.014 641.848 166.69 620.69Z" fill="#64B8D3"/>
<path d="M269.481 543.365C272.21 539.561 281.584 526.559 289.358 514.336C291.642 526.947 287.449 534.428 269.481 543.365ZM408.383 513.499C414.283 523.659 421.237 533.772 428.406 543.088C408.983 534.244 407.678 525.2 408.383 513.499Z" fill="#49A6C3"/>
<path d="M409.718 501.941C409.737 501.8 409.758 501.669 409.772 501.539C451.586 524.648 475.814 559.363 503.942 585.24C502.907 586.907 501.104 587.997 500.043 589.643C470.588 567.23 456.59 533.342 409.718 501.941ZM283.574 503.474C248.829 522.455 199.815 580.565 195.017 584.984C196.052 586.657 196.614 586.317 197.675 587.96C227.132 565.55 235.172 543.365 283.574 503.474ZM568.147 585.938C565.836 584.092 511.187 562.737 469.717 551.343C547.596 589.012 575.073 594.203 588.672 607.552C587.787 605.243 585.982 585.441 568.147 585.938ZM227.465 550.927C196.209 559.973 156.193 574.265 128.145 586.729C115.748 586.974 106.865 605.056 104.963 623.9C122.208 585.044 113.687 611.166 227.465 550.927Z" fill="#A3DFF1"/>
<path d="M595.258 637.61C594.473 617.653 588.198 584.216 568.239 585.703C566.589 584.293 520.117 563.13 470.514 549.624C453.521 532.395 432.346 508.953 409.568 501.19C407.925 516.046 406.155 525.739 410.067 530.573C415.247 536.21 421.461 541.849 427.558 545.646C438.226 559.827 446.368 568.244 446.368 568.244C433.819 616.091 425.995 640.614 421.008 692.323H276.784C271.799 640.617 263.973 616.093 251.424 568.244C251.424 568.244 259.564 559.825 270.234 545.646C276.333 541.847 282.545 536.21 287.725 530.573C291.635 525.739 289.867 516.046 288.224 501.19C265.445 508.953 244.269 532.395 227.278 549.624C177.674 563.132 131.203 584.293 129.553 585.703C109.592 584.216 103.317 617.653 102.534 637.61C101.584 661.846 105.85 695.244 106.197 697.555H591.595C591.942 695.242 596.208 661.846 595.258 637.61ZM286.458 529.293C281.24 534.454 278.004 536.645 271.498 541.5C282.659 527.007 281.531 528.944 289.312 515.549C289.661 521.308 287.496 528.269 286.458 529.293ZM110.454 692.998C107.953 663.314 103.715 636.584 111.447 607.505C114.408 596.35 117.188 588.797 128.677 587.84C131.143 600.639 147.471 654.224 161.721 690.761C147.332 634.85 149.447 647.289 142.726 625.005C140.498 617.529 138.441 610.015 135.841 602.652C134.032 597.535 132.028 592.513 130.613 587.276L224.058 552.922C223.413 553.576 194.257 583.969 193.554 584.824C197.823 591.806 211.618 601.515 218.618 611.998C189.877 614.711 175.844 619.331 165.463 620.873C166.228 622.997 186.403 679.466 188.518 684.789C185.1 666.492 177.388 637.88 168.557 621.901C171.816 621.488 210.335 616.142 222.621 613.866C219.21 607.27 204.033 594.367 195.907 584.702C243.622 542.728 254.66 521.373 287.41 502.764C287.757 506.251 288.434 509.723 288.681 513.208C252.177 567.595 247.893 567.674 247.893 567.674C258.489 608.834 272.233 650.466 272.233 692.642L110.454 692.998ZM411.332 529.293C410.296 528.269 408.128 521.308 408.477 515.549C416.259 528.946 415.131 527.007 426.291 541.5C419.786 536.645 416.548 534.456 411.332 529.293ZM587.336 692.998L425.559 692.642C425.559 650.466 439.303 608.832 449.899 567.674C449.899 567.674 445.614 567.595 409.111 513.208C409.356 509.723 410.033 506.251 410.382 502.764C443.132 521.373 454.168 542.728 501.885 584.702C493.759 594.369 478.582 607.272 475.171 613.866C487.455 616.14 525.974 621.488 529.235 621.901C520.406 637.88 512.694 666.492 509.274 684.789C511.388 679.464 531.564 622.997 532.329 620.873C521.948 619.331 507.915 614.711 479.174 611.998C486.172 601.515 499.969 591.808 504.238 584.824C503.533 583.969 474.378 553.576 473.734 552.922C473.736 552.922 567.178 587.276 567.178 587.276C565.766 592.516 563.76 597.535 561.951 602.652C559.351 610.015 557.294 617.529 555.066 625.005C548.345 647.291 550.46 634.85 536.071 690.761C550.321 654.222 566.647 600.639 569.115 587.84C580.604 588.797 583.384 596.35 586.344 607.505C594.075 636.584 589.836 663.316 587.336 692.998Z" fill="#3295B4"/>
<path d="M230.268 347.063C226.836 341.373 215.646 325.803 207.086 327.987C200.124 329.771 200.215 339.475 199.676 345.216C198.89 353.638 198.604 368.309 200.889 374.262C203.087 379.977 210.041 391.022 214.359 395.235C219.672 400.401 228.156 416.863 229.2 418.571C230.844 421.27 234.139 425.134 239.196 424.829C246.293 424.401 252.425 417.695 252.982 414.464C255.988 396.923 239.201 361.868 230.268 347.063Z" fill="#E5C1AD" stroke="#B77753" stroke-width="3.825"/>
<path d="M226.869 381.722C226.538 380.421 226.885 378.226 227.224 376.109C227.532 374.179 227.821 372.355 227.645 371.066C226.977 366.236 223.219 357.061 220.767 352.087C217.941 346.365 213.374 339.156 207.643 337.298C205.276 336.529 203.716 337.449 202.815 338.38C202.149 339.064 201.999 339.871 202.216 339.968C202.436 340.062 202.926 339.395 203.642 338.768C204.229 338.255 202.468 338.676 203.642 338.768C203.168 341.172 201.643 353.333 202.694 362.21C203.522 369.194 205.121 374.41 205.613 375.191C205.685 376.014 205.805 376.821 205.983 377.602C208.299 387.794 223.358 401.122 226.862 404.919C227.509 405.619 228.188 406.035 228.355 405.864C228.521 405.693 228.121 405.002 227.479 404.297C224.017 400.525 209.057 387.239 206.82 377.408C204.446 366.975 215.861 351.507 217.68 348.234C218.606 349.771 219.394 351.246 220 352.475C220.478 353.439 221.003 354.569 221.548 355.792C220.478 357.497 209.72 369.952 212.457 379.922C213.469 383.599 221.29 388.339 224.315 389.636C225.979 390.352 226.603 391.42 227.328 392.654C228.17 394.096 227.405 397.805 230.171 398.984C230.735 399.224 231.243 399.321 231.694 399.321C232.475 399.321 233.067 399.021 233.504 398.665C233.55 399.291 233.548 400.096 233.525 400.84C233.497 401.806 233.633 402.247 233.867 402.266C234.105 402.287 234.352 401.864 234.382 400.909C234.421 399.73 234.414 398.272 234.204 397.572C233.582 395.517 231.69 393.195 229.681 390.738C227.707 388.323 227.382 383.738 226.869 381.722ZM205.535 372.688C200.108 356.688 208.5 342.115 209.718 339.919C212.057 340.841 215.639 344.987 217.162 347.396C216.053 349.321 205.761 361.925 205.535 372.688ZM230.502 398.184C227.996 397.117 228.87 393.599 228.061 392.212C227.326 390.96 226.568 389.666 224.643 388.838C224.227 388.658 223.767 388.385 223.296 388.071C217.097 374.031 223.973 367.895 225.697 366.64C226.226 368.355 226.619 369.929 226.797 371.193C226.954 372.349 226.661 374.193 226.379 375.972C226.025 378.179 225.662 380.465 226.039 381.944C226.603 384.147 226.989 388.808 229.023 391.3C230.827 393.509 232.681 395.788 233.314 397.646C233.042 398.016 232.184 398.903 230.502 398.184Z" fill="#B77753"/>
<path d="M466.914 347.063C470.348 341.373 481.538 325.803 490.096 327.987C497.057 329.771 496.967 339.475 497.508 345.216C498.294 353.638 498.578 368.309 496.295 374.262C494.097 379.977 487.14 391.022 482.825 395.235C477.512 400.401 469.026 416.863 467.984 418.571C466.34 421.27 463.045 425.134 457.986 424.829C450.891 424.401 444.759 417.695 444.2 414.464C441.196 396.923 457.986 361.868 466.914 347.063Z" fill="#E5C1AD" stroke="#B77753" stroke-width="3.825"/>
<path d="M467.505 390.74C465.497 393.197 463.604 395.52 462.982 397.574C462.77 398.277 462.765 399.735 462.802 400.911C462.834 401.866 463.082 402.289 463.322 402.268C463.558 402.25 463.692 401.808 463.664 400.842C463.641 400.098 463.636 399.294 463.683 398.667C464.119 399.023 464.711 399.324 465.492 399.324C465.943 399.324 466.454 399.227 467.018 398.986C469.779 397.805 469.017 394.096 469.858 392.656C470.584 391.422 471.208 390.352 472.874 389.638C475.899 388.341 483.72 383.604 484.732 379.924C487.469 369.954 476.71 357.497 475.64 355.794C476.181 354.572 476.71 353.441 477.184 352.478C477.794 351.248 478.58 349.771 479.509 348.237C481.328 351.509 492.74 366.975 490.369 377.41C488.129 387.241 473.172 400.528 469.71 404.3C469.065 405.004 468.663 405.695 468.829 405.866C469 406.037 469.678 405.621 470.322 404.921C473.826 401.124 488.883 387.796 491.199 377.604C491.379 376.823 491.501 376.016 491.573 375.193C492.061 374.415 493.662 369.198 494.49 362.212C495.541 353.335 494.016 341.174 493.542 338.77C494.716 338.678 492.955 338.257 493.542 338.77C494.261 339.397 494.751 340.065 494.968 339.97C495.185 339.873 495.035 339.069 494.372 338.382C493.468 337.451 491.908 336.531 489.542 337.301C483.81 339.159 479.241 346.367 476.415 352.089C473.962 357.063 470.207 366.238 469.539 371.068C469.363 372.358 469.652 374.181 469.96 376.111C470.297 378.228 470.646 380.424 470.315 381.725C469.802 383.738 469.479 388.323 467.505 390.74ZM480.022 347.396C481.547 344.987 485.127 340.844 487.466 339.919C488.684 342.115 497.076 356.688 491.652 372.688C491.425 361.925 481.134 349.321 480.022 347.396ZM463.872 397.641C464.503 395.783 466.359 393.504 468.164 391.295C470.195 388.804 470.584 384.142 471.147 381.94C471.522 380.46 471.161 378.175 470.81 375.968C470.526 374.188 470.232 372.344 470.389 371.188C470.565 369.924 470.958 368.35 471.487 366.635C473.211 367.89 480.087 374.029 473.888 388.066C473.419 388.381 472.959 388.653 472.539 388.834C470.616 389.661 469.858 390.955 469.121 392.208C468.312 393.594 469.188 397.114 466.682 398.18C465 398.903 464.143 398.016 463.872 397.641Z" fill="#B77753"/>
<path d="M445.045 456.299C430.242 478.581 377.263 515.276 358.202 526.739C354.304 529.084 343.501 529.084 339.603 526.737C320.558 515.262 265.347 478.574 250.537 456.299C232.506 429.182 218.325 331.379 218.3 331.257C215.416 319.824 213.872 307.827 213.854 295.453C213.739 217.541 274.102 154.299 348.689 154.176C423.282 154.054 483.834 217.097 483.945 295.01C483.965 307.383 482.46 319.387 479.614 330.827C479.576 330.952 463.129 429.085 445.045 456.299Z" fill="#E5C1AD"/>
<path d="M422.825 177.199C453.301 202.852 473.078 243.963 473.142 290.356C473.16 302.73 471.775 314.731 469.157 326.173C469.122 326.296 453.991 424.429 437.353 451.646C423.735 473.927 374.995 510.62 357.457 522.081C353.871 524.431 343.932 524.431 340.347 522.079C322.826 510.606 272.03 473.92 258.407 451.646C241.816 424.526 228.772 326.726 228.748 326.601C226.095 315.17 224.675 303.171 224.659 290.797C224.595 244.229 244.418 202.915 275.023 177.174C238.137 202.408 213.781 245.955 213.854 295.456C213.872 307.827 215.416 319.826 218.3 331.259C218.327 331.381 232.506 429.182 250.537 456.302C265.347 478.578 320.558 515.267 339.603 526.739C343.499 529.087 354.304 529.087 358.202 526.741C377.263 515.278 430.242 478.581 445.045 456.302C463.129 429.087 479.576 330.952 479.614 330.829C482.46 319.387 483.965 307.385 483.945 295.012C483.874 245.689 459.566 202.351 422.825 177.199Z" fill="#DDB39C"/>
<path d="M445.045 456.299C430.242 478.581 377.263 515.276 358.202 526.739C354.304 529.084 343.501 529.084 339.603 526.737C320.558 515.262 265.347 478.574 250.537 456.299C232.506 429.182 218.325 331.379 218.3 331.257C215.416 319.824 213.872 307.827 213.854 295.453C213.739 217.541 274.102 154.299 348.689 154.176C423.282 154.054 483.834 217.097 483.945 295.01C483.965 307.383 482.46 319.387 479.614 330.827C479.576 330.952 463.129 429.085 445.045 456.299Z" stroke="#B77753" stroke-width="3.74734"/>
<path d="M330.332 471.591C349.476 476.8 366.605 471.314 366.605 471.314C360.718 481.501 334.787 479.92 330.332 471.591Z" fill="url(#paint1_linear_14:3)"/>
<path d="M335.671 454.488C339.714 454.589 343.733 456.63 347.95 457.281C350.885 457.736 360.011 454.807 363.015 454.668C370.898 454.302 385.725 456.343 392.962 456.736C393.358 456.76 392.962 456.736 392.962 456.736C367.413 481.804 321.237 477.555 304.727 456.71C302.069 456.8 331.929 454.392 335.671 454.488Z" fill="#E28C7C"/>
<path d="M348.416 462.804C338.135 462.788 303.77 455.971 303.77 455.971C303.528 456.213 304.039 457.342 304.382 457.661C305.213 458.416 307.762 458.796 309.492 459.115C361.213 468.845 349.625 463.282 368.612 462.573C371.028 462.482 391.251 459.011 393.143 457.643C400.922 451.947 367.852 462.828 348.416 462.804Z" fill="#B4422D"/>
<path d="M316.722 462.948C370.339 468.446 339.881 466.046 381.531 461.358C353.011 477.411 327.722 470.594 316.722 462.948ZM381 457.454C365.787 454.177 352.689 458.49 349.146 458.743C339.275 459.463 346.026 453.111 318.67 457.725C372.851 463.115 326.473 462.155 381 457.454Z" fill="#EA9B8C"/>
<path d="M366.329 465.108C356.668 465.326 353.54 467.514 345.973 467.168C340.041 466.854 337.386 465.432 331.882 465.042C330.627 464.959 329.319 464.925 328.033 464.901C335.44 469.273 350.669 472.372 366.329 465.108Z" fill="#F1AA9D"/>
<path d="M260.726 342.31C263.276 339.858 279.635 336.748 289.078 337.994C304.019 339.964 316.118 353.147 316.118 353.147C316.118 353.147 306.059 359.56 287.809 360.552C275.787 361.207 263.696 353.442 260.726 342.31Z" fill="url(#paint2_radial_14:3)"/>
<path d="M301.947 348.64C301.947 355.531 296.358 361.117 289.467 361.117C282.576 361.117 276.987 355.531 276.987 348.64C276.987 341.742 282.576 336.158 289.467 336.158C296.358 336.158 301.947 341.744 301.947 348.64Z" fill="#676F81"/>
<path d="M282.212 354.474C284.032 354.324 282.42 353.837 282.42 353.837C281.52 353.353 279.824 352.606 279.824 351.922C279.824 349.777 282.765 349.22 279.754 348.375C276.625 345.505 282.181 345.563 282.139 345.468C280.111 340.526 282.761 343.24 283.876 341.78C288.011 336.374 285.028 342.335 287.273 341.78C288.086 341.58 285.65 338.595 287.343 339.013C288.465 339.288 288.72 340.22 288.72 340.22C289.538 340.06 290.817 338.801 290.817 338.801C292.375 339.271 293.469 341.484 292.987 341.07C293.752 340.977 294.825 340.611 295.661 340.361C295.661 340.361 295.807 339.864 295.95 340.293C297.858 345.827 302.781 345.43 297.113 347.032C297.113 347.032 296.747 347.032 297.908 347.951C303.545 352.452 293.536 351.061 298.846 353.13C299.062 352.914 295.663 355.137 295.663 355.753C295.663 356.795 293.496 359.535 291.616 358.457C290.567 357.858 290.407 359.705 289.792 358.852C288.583 357.182 286.168 358.78 287.061 357.244C288.379 356.161 285.7 357.669 285.18 357.669C283.458 357.669 287.433 351.88 293.28 356.182C294.99 357.434 291.483 353.201 294.58 353.201C294.89 353.303 294.796 352.117 294.796 351.782C293.186 351.468 297.687 351.776 297.687 349.157C297.972 349.214 298.746 348.429 294.287 349.157C294.287 349.157 294.145 347.597 294.216 347.315C294.445 346.404 296.741 346.695 296.096 345.755C296.096 345.753 294.434 342.418 294.434 342.418C289.082 341.557 292.142 341.021 288.795 341.709C288.637 342.495 281.63 345.836 281.852 347.385C282.06 348.845 286.251 349.336 282.285 351.924C288.23 363.306 277.896 351.664 282.212 354.474Z" fill="#828690"/>
<path d="M289.467 337.718L289.823 346.855L293.644 338.55L290.476 347.125L297.188 340.917L290.979 347.627L299.557 344.459L291.254 348.284L300.389 348.637L291.254 348.991L299.557 352.816L290.979 349.648L297.188 356.358L290.476 350.15L293.644 358.725L289.823 350.42L289.467 359.557L289.111 350.42L285.288 358.725L288.454 350.15L281.744 356.358L287.953 349.648L279.375 352.816L287.678 348.991L278.547 348.637L287.678 348.284L279.375 344.459L287.953 347.627L281.744 340.917L288.454 347.125L285.288 338.55L289.111 346.855L289.467 337.718Z" fill="#3B4762"/>
<path d="M291.123 340.459L290.002 347.354L294.122 341.715L290.449 347.658L296.418 344.022L290.75 348.107L297.654 347.036L290.857 348.64L297.65 350.291L290.75 349.172L296.391 353.295L290.447 349.623L294.083 355.591L289.998 349.923L291.071 356.826L289.467 350.025L287.814 356.814L288.935 349.919L284.808 355.558L288.485 349.615L282.518 353.251L288.186 349.166L281.282 350.239L288.082 348.635L281.293 346.986L288.188 348.103L282.547 343.98L288.492 347.652L284.858 341.684L288.943 347.352L287.87 340.451L289.475 347.252L291.123 340.459Z" fill="#293653"/>
<path opacity="0.9" d="M294.147 348.64C294.147 351.225 292.051 353.32 289.467 353.32C286.884 353.32 284.787 351.225 284.787 348.64C284.787 346.054 286.884 343.96 289.467 343.96C292.051 343.96 294.147 346.054 294.147 348.64Z" fill="black"/>
<path opacity="0.7" d="M284.552 357.606C283.864 358.297 282.503 358.054 281.515 357.064C280.525 356.076 280.282 354.715 280.972 354.025C281.661 353.336 283.021 353.58 284.009 354.568C284.999 355.558 285.243 356.916 284.552 357.606Z" fill="white"/>
<path opacity="0.9" d="M299.464 346.181C298.432 347.213 295.934 346.389 293.885 344.338C291.834 342.287 291.01 339.789 292.042 338.758C293.074 337.726 295.572 338.55 297.621 340.6C299.672 342.653 300.495 345.149 299.464 346.181Z" fill="white"/>
<path d="M249.702 350.72C249.702 379.44 276.051 394.397 287.142 394.397C307.817 394.397 324.582 379.44 324.582 350.72C324.582 321.997 307.817 298.718 287.142 298.718C266.467 298.718 249.702 321.997 249.702 350.72ZM260.726 342.31C263.276 339.858 279.635 336.748 289.078 337.994C304.019 339.964 316.118 353.147 316.118 353.147C316.118 353.147 306.059 359.56 287.809 360.552C275.787 361.207 263.696 353.442 260.726 342.31Z" fill="#E5C1AD"/>
<path d="M288.908 368.591C308.485 373.215 327.286 365.242 330.911 350.776C334.526 336.307 321.597 320.834 302.016 316.202C282.435 311.576 263.634 319.549 260.01 334.017C256.395 348.488 269.32 363.959 288.908 368.591ZM260.726 342.31C263.276 339.858 279.635 336.748 289.078 337.994C304.019 339.964 316.118 353.147 316.118 353.147C316.118 353.147 306.059 359.56 287.809 360.552C275.787 361.207 263.696 353.442 260.726 342.31Z" fill="url(#paint3_radial_14:3)"/>
<path d="M260.726 342.31C263.276 339.858 279.635 336.748 289.078 337.994C304.019 339.964 316.118 353.147 316.118 353.147C316.118 353.147 306.059 359.56 287.809 360.552C275.787 361.207 263.696 353.442 260.726 342.31Z" fill="url(#paint4_radial_14:3)"/>
<path d="M315.222 345.432C301.697 336.59 306.789 339.005 281.463 331.49C288.419 332.53 301.373 335.787 305.814 338.396C308.233 339.756 313.142 343.614 315.222 345.432Z" fill="#B77753"/>
<path d="M257.442 342.162C261.491 352.409 277.688 371.201 318.354 353.671C311.912 346.682 295.464 334.716 280.584 334.82C268.118 334.905 261.152 338.791 257.442 342.162ZM260.726 342.554C263.276 340.189 279.635 337.187 289.078 338.391C304.019 340.29 316.118 353.005 316.118 353.005C316.118 353.005 306.059 359.191 287.809 360.148C275.787 360.778 263.696 353.29 260.726 342.554Z" fill="black"/>
<path d="M436.114 342.31C433.564 339.858 417.205 336.748 407.762 337.994C392.821 339.964 380.722 353.147 380.722 353.147C380.722 353.147 390.781 359.559 409.031 360.552C421.053 361.207 433.142 353.442 436.114 342.31Z" fill="url(#paint5_radial_14:3)"/>
<path d="M420.683 348.637C420.683 355.535 415.1 361.117 408.203 361.117C401.306 361.117 395.723 355.535 395.723 348.637C395.723 341.74 401.306 336.157 408.203 336.157C415.1 336.157 420.683 341.74 420.683 348.637Z" fill="#676F81"/>
<path d="M400.939 354.476C402.768 354.318 401.158 353.842 401.158 353.842C400.255 353.355 398.55 352.61 398.55 351.915C398.55 349.771 401.499 349.222 398.502 348.369C395.357 345.505 400.914 345.565 400.867 345.468C398.843 340.519 401.501 343.238 402.622 341.776C406.741 336.376 403.768 342.337 406.01 341.776C406.815 341.58 404.378 338.595 406.083 339.009C407.204 339.29 407.448 340.216 407.448 340.216C408.276 340.057 409.544 338.801 409.544 338.801C411.104 339.265 412.201 341.482 411.714 341.068C412.494 340.971 413.567 340.604 414.395 340.361C414.395 340.361 414.541 339.862 414.688 340.288C416.589 345.821 421.513 345.432 415.859 347.028C415.859 347.028 415.493 347.028 416.639 347.941C422.27 352.45 412.275 351.048 417.59 353.12C417.808 352.912 414.397 355.131 414.397 355.753C414.397 356.789 412.228 359.53 410.351 358.447C409.303 357.85 409.133 359.703 408.523 358.848C407.329 357.178 404.891 358.775 405.792 357.24C407.109 356.157 404.428 357.667 403.916 357.667C402.185 357.667 406.158 351.878 412.009 356.179C413.715 357.423 410.206 353.193 413.326 353.193C413.619 353.29 413.544 352.109 413.544 351.778C411.911 351.462 416.421 351.766 416.421 349.145C416.714 349.205 417.494 348.425 413.033 349.145C413.033 349.145 412.887 347.585 412.96 347.304C413.178 346.391 415.47 346.682 414.836 345.744L413.178 342.406C407.816 341.553 410.886 341.016 407.523 341.699C407.377 342.491 400.357 345.829 400.575 347.377C400.794 348.839 404.987 349.328 401.014 351.911C406.959 363.312 396.626 351.66 400.939 354.476Z" fill="#828690"/>
<path d="M408.203 337.717L408.569 346.859L412.371 338.547L409.203 347.127L415.93 340.912L409.715 347.629L418.295 344.461L409.983 348.288L419.125 348.642L409.983 348.995L418.295 352.822L409.715 349.655L415.93 356.371L409.203 350.156L412.371 358.736L408.569 350.424L408.203 359.557L407.837 350.416L404.01 358.727L407.177 350.148L400.474 356.363L406.689 349.646L398.109 352.814L406.42 348.987L397.279 348.633L406.42 348.28L398.109 344.452L406.689 347.62L400.474 340.904L407.177 347.119L404.01 338.539L407.837 346.851L408.203 337.717Z" fill="#3B4762"/>
<path d="M409.861 340.459L408.739 347.356L412.858 341.713L409.176 347.66L415.148 344.016L409.492 348.111L416.39 347.038L409.588 348.635L416.39 350.293L409.492 349.172L415.123 353.29L409.176 349.621L412.808 355.593L408.737 349.925L409.811 356.822L408.203 350.027L406.545 356.816L407.666 349.919L403.548 355.562L407.229 349.615L401.258 353.259L406.913 349.164L400.016 350.237L406.817 348.64L400.016 346.982L406.913 348.103L401.283 343.984L407.229 347.654L403.598 341.682L407.668 347.35L406.595 340.453L408.203 347.254L409.861 340.459Z" fill="#293653"/>
<path opacity="0.9" d="M412.883 348.637C412.883 351.221 410.786 353.317 408.203 353.317C405.619 353.317 403.523 351.221 403.523 348.637C403.523 346.054 405.619 343.957 408.203 343.957C410.786 343.957 412.883 346.054 412.883 348.637Z" fill="black"/>
<path opacity="0.7" d="M403.279 357.608C402.597 358.291 401.233 358.06 400.257 357.059C399.259 356.071 399.013 354.719 399.721 354.025C400.403 353.342 401.767 353.586 402.743 354.574C403.741 355.56 403.987 356.914 403.279 357.608Z" fill="white"/>
<path opacity="0.9" d="M418.197 346.175C417.174 347.211 414.663 346.393 412.614 344.334C410.568 342.287 409.738 339.787 410.786 338.764C411.809 337.728 414.297 338.545 416.344 340.605C418.416 342.653 419.22 345.151 418.197 346.175Z" fill="white"/>
<path d="M409.698 298.718C389.023 298.718 372.258 321.999 372.258 350.719C372.258 379.44 389.023 394.397 409.698 394.397C424.676 394.397 447.138 379.44 447.138 350.719C447.138 321.997 430.373 298.718 409.698 298.718ZM409.031 360.552C390.781 359.562 380.722 353.147 380.722 353.147C380.722 353.147 392.821 339.964 407.762 337.994C417.205 336.746 433.564 339.858 436.114 342.31C433.142 353.442 421.053 361.207 409.031 360.552Z" fill="#E5C1AD"/>
<path d="M436.828 334.019C433.204 319.551 414.403 311.576 394.822 316.204C375.241 320.836 362.312 336.309 365.927 350.778C369.552 365.244 388.353 373.217 407.93 368.593C427.518 363.959 440.445 348.488 436.828 334.019ZM409.031 360.552C390.781 359.562 380.722 353.147 380.722 353.147C380.722 353.147 392.821 339.964 407.762 337.994C417.205 336.746 433.564 339.858 436.114 342.31C433.142 353.442 421.053 361.207 409.031 360.552Z" fill="url(#paint6_radial_14:3)"/>
<path d="M436.114 342.31C433.564 339.858 417.205 336.748 407.762 337.994C392.821 339.964 380.722 353.147 380.722 353.147C380.722 353.147 390.781 359.559 409.031 360.552C421.053 361.207 433.142 353.442 436.114 342.31Z" fill="url(#paint7_radial_14:3)"/>
<path d="M381.618 345.432C395.143 336.59 390.051 339.005 415.377 331.49C408.421 332.53 395.467 335.787 391.026 338.396C388.605 339.756 383.698 343.614 381.618 345.432Z" fill="#B77753"/>
<path d="M416.256 334.818C401.376 334.714 384.926 346.68 378.486 353.669C419.152 371.199 435.349 352.406 439.398 342.16C435.688 338.791 428.72 334.905 416.256 334.818ZM409.031 360.148C390.781 359.193 380.722 353.005 380.722 353.005C380.722 353.005 392.821 340.29 407.762 338.391C417.205 337.187 433.564 340.189 436.114 342.553C433.142 353.29 421.053 360.778 409.031 360.148Z" fill="black"/>
<path d="M443.65 415.541C443.731 467.822 401.375 510.282 349.038 510.354C296.71 510.439 254.218 468.123 254.137 415.83C254.056 363.552 296.412 320.926 348.747 320.843C401.077 320.762 443.574 363.252 443.65 415.541Z" fill="url(#paint8_radial_14:3)"/>
<path d="M435.561 276.932C435.561 324.798 396.76 363.599 348.897 363.599C301.032 363.599 262.228 324.798 262.228 276.932C262.228 229.067 301.032 190.266 348.897 190.266C396.76 190.266 435.561 229.067 435.561 276.932Z" fill="url(#paint9_radial_14:3)"/>
<path d="M241.514 338.54C254.457 314.021 284.337 312.039 308.919 310.935C315.172 310.655 321.563 310.123 327.818 310.501C332.301 310.77 336.586 315.009 333.893 319.597C332.64 321.775 329.066 322.091 326.891 322.456C298.121 327.3 262.608 316.948 241.514 338.54Z" fill="#7F6C69"/>
<path d="M456.656 337.695C452.364 333.477 447.603 330.173 441.904 328.109C420.999 320.531 377.203 327.133 366.981 322.047C360.722 318.93 363.312 312.559 366.546 311.479C368.492 310.829 368.976 310.947 385.199 311.217C412.764 311.682 443.347 313.691 456.656 337.695Z" fill="#7F6C69"/>
<path d="M341.571 356.723C341.571 356.723 338.338 382.416 336.889 387.417C333.702 398.399 322.634 413.803 324.781 420.764C329.077 434.681 342.199 431.148 349.103 431.097C355.488 431.046 367.758 434.684 370.277 425.619C371.091 422.694 369.258 415.298 369.258 415.298C369.258 415.298 363.147 422.49 348.747 421.693C344.638 421.464 337.952 416.849 337.875 410.341C337.776 401.519 342.04 394.082 342.971 385.325C343.674 378.674 341.571 356.723 341.571 356.723Z" fill="#D6A68C"/>
<path d="M360.899 427.085C363.383 427.085 364.056 427.838 364.056 428.769C364.056 429.703 363.281 431.141 360.899 430.457C358.278 429.71 353.704 430.052 353.704 430.052C353.704 430.052 358.41 427.085 360.899 427.085ZM337.159 427.085C334.67 427.087 334.002 427.843 334.002 428.779C334 429.71 334.748 431.051 337.159 430.463C339.817 429.812 344.351 430.059 344.351 430.059C344.351 430.059 339.648 427.094 337.159 427.085ZM369.256 415.298C369.256 415.298 372.697 419.765 371.983 424.485C371.287 429.068 364.333 431.097 364.333 431.097C364.333 431.097 369.161 427.593 369.746 423.341C370.018 421.346 369.256 415.298 369.256 415.298ZM326.771 410.708C326.771 410.708 324.261 416.957 324.986 420.766C326.306 427.644 333.547 430.39 333.547 430.39C333.547 430.39 329.028 425.677 327.422 421.51C325.664 416.957 326.771 410.708 326.771 410.708Z" fill="#B77753"/>
<path d="M360.776 418.631C363.187 416.576 363.429 415.404 362.93 414.635C362.433 413.863 360.986 413.375 358.969 415.855C356.743 418.582 351.906 420.602 351.906 420.602C351.906 420.602 358.366 420.681 360.776 418.631Z" fill="#F4DED1"/>
<path d="M461.558 357.241C454.747 361.285 444.127 392.996 440 396C434 409.5 433.5 423 413.635 463.808C400.434 439.569 402.475 435.433 385.103 431.76C363.782 426.907 356.682 424.781 348.895 435.503C342.86 429.125 340.664 425.729 326.087 429.033C300.129 434.371 298.842 433.677 291.099 450.984C290.544 452.347 284.82 462.514 284.154 463.831C282.89 454.635 283.265 454.334 279.649 434.07C278.649 434.07 275.213 416.592 265.251 400.209C255.622 386.276 234.678 355.832 224.428 352.25C224.428 369.834 226.048 396.106 226.358 399.48C230.241 440.748 245.705 505.169 273.305 532.226C296.379 553.923 322.071 552.444 348.983 552.444C362.85 552.444 389.052 553.438 405.005 545.374C426.681 536.639 441.701 511.985 450.265 489.479C465.175 451.515 473.361 413.529 473.361 352.25C465.485 355.347 463.954 355.693 461.558 357.241ZM357.747 494.54C358.013 492.945 358.834 490.612 359.167 489.988C361.519 484.789 372.346 469.423 373.611 468.291C359.256 472.75 342.372 473.259 324.689 468.915C328.905 474.16 338.866 487.723 340.042 494.54C324.379 487.446 303.856 484.234 305.986 466.719C307.117 453.919 321.228 453.341 330.524 452.717C367.753 451.978 390.228 450.037 391.826 466.719C393.845 484.188 373.699 487.469 357.747 494.54Z" fill="#887562"/>
<path d="M473.361 352.25C473.361 413.529 465.175 451.515 450.265 489.479C441.701 511.985 426.681 536.639 405.005 545.374C389.052 553.438 362.85 552.444 348.983 552.444C322.071 552.444 296.379 553.923 273.305 532.226C245.705 505.169 230.241 440.748 226.358 399.48C226.048 396.083 224.428 369.834 224.428 352.25C226.625 353.013 229.331 354.122 232.282 355.485C246.97 424.504 250.697 520.188 324.49 547.315C322.271 542.693 315.615 533.451 315.615 533.451C315.615 533.451 328.927 542.693 335.583 547.315C335.583 545.004 333.409 536.039 333.409 536.039C333.409 536.039 344.014 543.964 350.67 546.275C350.67 543.964 348.451 536.847 348.451 536.847L360.055 544.819L377.737 528.829C377.737 528.829 372.191 540.96 369.972 545.582C377.959 543.34 391.005 533.335 391.005 533.335C391.005 533.335 388.831 540.383 388.831 542.693C453.638 504.73 453.749 424.389 463.4 356.202C465.197 355.324 467.549 354.538 473.361 352.25ZM324.689 468.915C325.31 469.677 326.043 470.624 326.863 471.71C341.085 481.092 357.193 480.699 370.815 471.895C372.213 469.978 373.278 468.591 373.633 468.291C359.256 472.75 342.35 473.236 324.689 468.915ZM350.537 539.99C349.649 538.257 348.407 536.016 348.052 534.075C348.052 534.052 347.386 531.209 347.386 531.209C347.342 531.001 346.543 525.317 346.698 525.317C346.587 522.198 346.166 518.085 345.944 515.751C344.236 531.464 346.632 535.23 350.537 539.99ZM358.568 481.092C358.546 481.092 358.59 481.323 358.502 481.716C357.814 485.043 352.556 491.767 352.067 495.88C351.89 489.04 358.235 483.402 358.568 481.092ZM404.65 472.773C407.8 480.306 405.271 485.574 401.876 492.991C404.65 482.524 406.136 479.89 404.65 472.773ZM392.447 450.245C395.664 455.305 396.84 456.229 400.767 471.618C397.106 463.184 396.729 460.827 392.447 450.245ZM395.775 443.89C400.168 447.657 403.185 451.076 406.314 463.531C402.342 454.288 399.702 448.858 395.775 443.89ZM357.503 532.85C358.723 519.125 362.628 511.43 371.37 501.079C364.936 511.569 360.831 521.043 357.503 532.85ZM371.37 527.651C376.095 520.003 381.265 507.872 390.783 505.122C387.366 506.832 385.724 508.773 382.618 512.678C382.618 512.678 380.932 514.735 378.447 518.547C376.672 521.227 373.588 525.364 371.37 527.651ZM380.799 537.471C386.168 528.737 385.813 526.126 391.338 520.719C386.19 528.136 386.523 531.441 380.799 537.471ZM376.916 509.166C379.712 499.877 384.083 491.466 393.002 486.637C386.235 492.067 380.999 501.31 376.916 509.166ZM354.175 515.474C352.045 508.75 353.376 502.835 354.73 495.857C354.353 504.868 353.354 509.559 354.175 515.474ZM419.626 503.967C413.302 512.886 407.401 517.091 399.658 520.141C406.957 515.659 410.108 512.701 419.626 503.967ZM429.055 476.817C425.638 493.708 413.08 504.314 398.548 512.632C413.857 499.6 419.559 492.113 419.559 492.113C422.732 488.37 426.659 482.617 429.055 476.817ZM415.743 491.258C415.632 476.748 418.028 468.06 425.727 455.444C420.935 467.806 417.54 480.745 415.743 491.258ZM442.921 431.76C442.811 437.906 442.966 449.39 427.391 471.618C427.435 471.503 438.085 447.218 437.952 447.218C440.947 439.939 441.701 437.074 442.921 431.76ZM425.727 443.89C425.394 431.113 428.522 428.686 433.492 414.43C430.985 427.97 427.79 430.304 425.727 443.89ZM452.351 385.547C449.755 401.675 446.715 405.696 436.265 429.449C440.681 409.739 445.318 404.61 452.351 385.547ZM295.913 492.991C292.341 485.389 290.1 480.583 293.14 472.773C292.563 475.5 292.075 476.748 293.162 482.963C293.162 482.986 295.913 492.991 295.913 492.991ZM297.023 471.618C300.351 457.084 303.168 453.757 305.343 450.245C299.507 464.247 302.259 459.903 297.023 471.618ZM291.476 463.531C294.027 452.578 297.045 448.35 302.015 443.89C297.444 449.505 295.048 455.536 291.476 463.531ZM326.42 501.079C336.115 512.031 338.955 520.742 340.286 532.85C337.136 520.881 333.098 512.539 326.42 501.079ZM307.007 505.122C310.179 506 313.041 507.549 316.303 511.685C316.303 511.685 319.209 514.966 324.312 524.093C325.444 526.149 326.42 527.651 326.42 527.651C323.558 524.601 315.105 512.701 315.149 512.701C311.155 507.733 309.891 506.601 307.007 505.122ZM304.233 520.719C310.268 526.657 309.691 529.5 314.772 537.471C309.225 531.648 309.159 527.859 304.233 520.719ZM304.788 486.637C308.981 488.879 311.533 491.235 313.019 493.407C313.019 493.407 314.04 494.794 314.994 496.203C318.388 501.703 319.076 503.366 320.873 509.166C319.253 506 318.388 504.244 313.862 497.012C312.908 495.649 311.932 494.309 311.932 494.309C309.247 490.427 306.807 488.255 304.788 486.637ZM343.06 495.88C344.546 503.898 343.969 506.093 342.505 510.899C343.37 505.238 343.304 505.931 343.06 495.88ZM341.95 482.016C344.169 483.633 346.72 485.898 348.34 491.027C348.34 491.027 351.313 498.468 349.161 509.235C349.316 505.816 348.828 489.687 341.95 482.016ZM298.132 520.141C289.546 517.115 283.688 511.477 278.164 503.967C285.463 510.83 290.167 515.151 298.132 520.141ZM299.241 512.632C284.798 504.291 272.395 494.031 268.735 476.817C270.82 481.993 273.394 486.591 278.208 492.137C278.208 492.137 284.199 499.392 299.241 512.632ZM272.063 455.444C278.741 466.373 282.18 475.269 282.047 491.258C280.072 479.728 276.5 466.881 272.063 455.444ZM270.399 471.618C261.835 459.672 255.267 446.871 254.868 431.76C257.641 444.537 262.411 452.671 270.399 471.618ZM264.297 414.43C269.666 429.472 272.395 431.898 272.063 443.89C270.376 430.743 266.804 429.01 264.297 414.43ZM261.524 429.449C253.115 410.386 248.301 403.362 245.439 385.547C253.226 406.689 257.331 410.779 261.524 429.449Z" fill="#79624B"/>
<path d="M228.477 360.835C221.825 355.054 213.503 340.181 209.789 319.332C208.999 315.059 208.435 310.667 207.836 306.016C205.327 286.5 199.949 263.756 203.67 240.456C208.136 211.949 228.676 181.088 254.779 163.657C295.138 136.456 397.152 124.3 418.414 160.106C430.747 159.636 444.055 162.992 453.244 170.436C483.66 194.199 495.421 274.903 486.992 314.988C481.384 342.362 479.913 349.541 468.657 360.274C472.678 234.753 466.461 268.622 461.323 234.915C455.299 230.317 453.054 232.216 443.775 226.731C425.32 212.539 426.215 206.854 417.855 196.928C410.409 206.099 399.704 214.172 391.437 217.902C393.531 214.327 395.317 210.318 396.5 207.739L395.511 206.878C388.568 212.104 374.542 219.535 365.922 220.332C370.553 214.406 370.011 215.152 371.862 211.54C364.948 215.968 357.603 218.974 348.335 219.819C357.066 215.328 360.979 212.254 367.751 206.378L367.132 205.182C320.116 220.055 308.963 223.424 274.492 229.792C245.622 233.552 256.192 230.374 245.72 230.374C228.874 230.374 226.2 283.032 226.928 300.588C228.805 349.666 226.391 340.109 228.477 360.835Z" fill="#887562"/>
<path d="M486.992 314.988C481.384 342.362 479.913 349.541 468.657 360.274C472.678 234.753 466.461 268.622 461.323 234.915C455.299 230.317 453.054 232.216 443.775 226.731C425.32 212.539 426.215 206.854 417.855 196.928C410.409 206.099 399.704 214.172 391.437 217.902C393.531 214.327 395.318 210.318 396.5 207.739L395.511 206.878C388.568 212.104 374.542 219.535 365.923 220.332C370.553 214.406 370.011 215.152 371.862 211.54C364.949 215.968 357.603 218.974 348.335 219.819C357.066 215.328 360.979 212.254 367.751 206.378L367.132 205.182C320.116 220.055 308.963 223.424 274.492 229.792C245.622 233.552 256.192 230.374 245.72 230.374C228.874 230.374 226.2 283.032 226.928 300.588C228.805 349.668 226.391 340.109 228.477 360.838C221.825 355.057 213.503 340.183 209.789 319.334C208.999 315.062 208.435 310.669 207.836 306.018C205.327 286.502 199.949 263.759 203.67 240.458C207.197 217.939 234.125 184.818 252.534 167.144C195.958 222.021 212.598 283.258 222.027 332.354C219.251 289.025 211.222 219.163 248.939 216.853C299.968 216.853 357.363 209.308 392.861 172.338C390.643 188.513 388.715 191.436 377.621 202.989C386.496 196.057 397.589 191.436 402.027 179.882C399.808 189.125 399.808 196.057 393.152 202.989C399.808 198.367 406.464 191.436 413.12 184.504C413.12 191.436 408.683 198.367 406.464 205.299C410.901 193.746 424.213 186.814 426.432 175.261C419.776 205.299 453.875 221.439 464.413 227.793C478.834 248.589 479.389 292.491 476.061 328.884C488.264 287.292 482.717 216.24 446.664 167.139C486.045 197.177 494.323 280.132 486.992 314.988ZM260.851 198.333C287.934 197.503 307.809 192.933 336.84 175.804C308.914 188.55 291.242 194.631 260.851 198.333ZM334.622 188.513C348.954 182.318 358.927 168.879 375.112 164.829C360.196 170.219 349.824 183.741 334.622 188.513ZM248.649 197.177C258.919 177.944 280.864 162.005 308.552 159.63C286.02 163.992 261.89 177.463 248.649 197.177Z" fill="#79624B"/>
<path d="M319.091 152.155C348.122 139.229 374.549 140.548 402.291 156.741C373.175 143.79 350.92 146.269 350.92 146.269C345.622 146.702 337.151 146.489 319.091 152.155ZM433.352 170.605C442.535 174.288 446.367 179.885 451.951 187.96C460.127 201.718 462.414 207.677 467.178 221.439C462.552 201.674 452.175 175.936 433.352 170.605ZM381.213 170.027C365.428 183.898 353.982 191.371 322.419 202.376C347.361 196.207 363.258 188.931 381.213 170.027ZM432.243 184.469C436.829 200.727 445.279 209.787 458.312 217.973C446.198 208.483 438.277 199.675 432.243 184.469ZM256.969 175.804C256.969 175.804 255.89 176.636 254.113 178.004C233.824 192.974 217.962 221.582 217.587 257.832C222.014 221.767 235.736 196.387 256.969 175.804ZM267.507 186.202C284.717 176.832 292.665 176.758 321.31 171.76C296.587 173.556 284.358 174.783 267.507 186.202ZM314.206 195.974C304.077 201.265 280.311 207.192 280.311 206.926C271.976 208.853 257.525 212.197 257.525 212.197C263.121 211.46 272.721 210.29 280.639 208.52C280.639 208.832 300.155 203.934 305.886 200.851C312.178 197.76 310.046 198.973 316.32 194.867C316.318 194.867 315.517 195.287 314.206 195.974Z" fill="#978A7C"/>
<path d="M453.655 169.889C444.272 162.289 430.752 158.934 418.775 159.398C408.545 142.175 376.286 137.221 356.719 137.008C327.202 136.69 280.566 145.449 254.417 163.072C230.083 179.321 207.774 209.946 203.011 240.34C200.162 258.181 202.616 276.666 205.518 294.363C206.938 302.912 207.67 311.531 209.134 319.456C213.343 343.087 223.101 357.873 229.302 362.365C226.939 339.594 229.517 350.816 227.594 300.555C226.699 278.995 230.489 229.586 246.43 231.098C257.264 231.895 248.68 233.85 274.607 230.471C308.657 224.182 319.792 220.878 367.325 205.842C359.877 212.308 356.003 215.242 346.026 220.215C346.003 220.191 346.003 220.215 346.003 220.215C345.693 220.376 345.36 220.538 345.049 220.677C353.301 220.621 363.566 217.661 370.118 213.467C369.215 215.228 366.497 218.428 364.485 221.093C373.013 221.093 388.313 213.149 395.901 207.437C394.836 209.747 392.344 215.436 389.664 219.475C392.196 218.158 398.259 216.441 410.364 205.773C412.827 203.624 415.645 200.713 417.863 197.986C425.294 206.808 424.848 213.042 443.445 227.331C452.67 232.784 455.164 231.086 460.706 235.303C465.6 268.687 472.096 233.466 467.939 361.88C480.363 350.419 481.861 343.335 487.64 315.136C495.869 276.01 484.669 194.123 453.655 169.889ZM484.004 314.65C479.087 343.039 478.675 347.831 468.74 359.061C470.545 334.106 472.134 311.787 471.666 286.645C470.681 249.534 465.942 256.496 462.569 234.148C456.184 229.478 453.089 230.324 447.216 227.562C446.196 227.17 445.353 226.499 444.399 225.991C425.78 212.534 425.766 206.11 418.152 197.64C420.306 195.066 422.174 192.115 422.789 190.846C419.441 196.078 405.091 209.884 391.484 217.719C393.833 213.846 395.619 210.082 396.897 206.674C400.747 203.874 403.376 201.226 405.594 198.934C398.009 205.496 378.471 217.326 366.213 219.891C366.599 219.477 370.373 215.672 371.795 212.788C374.802 211.536 382.924 206.367 385.782 203.077C371.795 212.788 355.885 218.604 350.33 219.565C357.128 216.91 365.949 208.634 370.475 204.87C374.848 201.233 375.696 199.772 380.235 194.98C377.253 197.147 372.603 201.896 366.799 204.447C363.367 205.956 269.422 233.325 253.084 228.879C249.805 228.024 246.097 226.989 242.834 227.978C216.653 239.707 226.28 314.937 226.637 338.034C226.939 357.497 228.279 360.886 228.279 360.886C211.082 343.88 210.332 306.461 208.533 293.462C206.252 276.234 204.267 257.945 207.313 240.849C212.283 211.642 233.741 182.142 256.7 166.769C291.021 143.571 393.356 123.946 418.751 160.23C481.796 160.23 490.64 268.313 484.004 314.65Z" fill="#5A4026"/>
</g>
</g>
<defs>
<linearGradient id="paint0_linear_14:3" x1="348.895" y1="551.956" x2="348.895" y2="461.823" gradientUnits="userSpaceOnUse">
<stop stop-color="#D6A68C" stop-opacity="0.8"/>
<stop offset="0.7" stop-color="#B77753"/>
</linearGradient>
<linearGradient id="paint1_linear_14:3" x1="348.878" y1="477.076" x2="348.878" y2="471.761" gradientUnits="userSpaceOnUse">
<stop offset="0.1" stop-color="#DDB39C"/>
<stop offset="1" stop-color="#D6A68C"/>
</linearGradient>
<radialGradient id="paint2_radial_14:3" cx="0" cy="0" r="1" gradientUnits="userSpaceOnUse" gradientTransform="translate(287.236 348.432) rotate(177.003) scale(28.9218 31.5712)">
<stop stop-color="white"/>
<stop offset="0.544" stop-color="#FDFEFE"/>
<stop offset="0.74" stop-color="#F6F8F9"/>
<stop offset="0.879" stop-color="#EAEFF2"/>
<stop offset="0.992" stop-color="#D9E3E8"/>
<stop offset="1" stop-color="#D8E2E7"/>
</radialGradient>
<radialGradient id="paint3_radial_14:3" cx="0" cy="0" r="1" gradientUnits="userSpaceOnUse" gradientTransform="translate(295.651 341.305) rotate(8.11147) scale(35.1811 27.0365)">
<stop stop-color="#D6A68C"/>
<stop offset="0.7" stop-color="#D6A68C" stop-opacity="0.3"/>
<stop offset="1" stop-color="#E5C1AD" stop-opacity="0"/>
</radialGradient>
<radialGradient id="paint4_radial_14:3" cx="0" cy="0" r="1" gradientUnits="userSpaceOnUse" gradientTransform="translate(281.587 403.949) scale(63.443)">
<stop offset="0.95" stop-opacity="0"/>
<stop offset="1" stop-opacity="0.2"/>
</radialGradient>
<radialGradient id="paint5_radial_14:3" cx="0" cy="0" r="1" gradientUnits="userSpaceOnUse" gradientTransform="translate(409.604 348.435) rotate(2.99733) scale(28.9218 31.5712)">
<stop stop-color="white"/>
<stop offset="0.544" stop-color="#FDFEFE"/>
<stop offset="0.74" stop-color="#F6F8F9"/>
<stop offset="0.879" stop-color="#EAEFF2"/>
<stop offset="0.992" stop-color="#D9E3E8"/>
<stop offset="1" stop-color="#D8E2E7"/>
</radialGradient>
<radialGradient id="paint6_radial_14:3" cx="0" cy="0" r="1" gradientUnits="userSpaceOnUse" gradientTransform="translate(401.187 341.305) rotate(171.889) scale(35.1811 27.0365)">
<stop stop-color="#D6A68C"/>
<stop offset="0.7" stop-color="#D6A68C" stop-opacity="0.3"/>
<stop offset="1" stop-color="#E5C1AD" stop-opacity="0"/>
</radialGradient>
<radialGradient id="paint7_radial_14:3" cx="0" cy="0" r="1" gradientUnits="userSpaceOnUse" gradientTransform="translate(415.251 403.949) rotate(180) scale(63.443)">
<stop offset="0.95" stop-opacity="0"/>
<stop offset="1" stop-opacity="0.2"/>
</radialGradient>
<radialGradient id="paint8_radial_14:3" cx="0" cy="0" r="1" gradientUnits="userSpaceOnUse" gradientTransform="translate(348.895 415.601) scale(94.7552)">
<stop stop-color="#F4DED1" stop-opacity="0.5"/>
<stop offset="0.9" stop-color="#E5C1AD" stop-opacity="0"/>
</radialGradient>
<radialGradient id="paint9_radial_14:3" cx="0" cy="0" r="1" gradientUnits="userSpaceOnUse" gradientTransform="translate(348.895 276.935) scale(85.5108)">
<stop stop-color="#F4DED1" stop-opacity="0.5"/>
<stop offset="0.9" stop-color="#E5C1AD" stop-opacity="0"/>
</radialGradient>
<clipPath id="clip0_14:3">
<rect width="600" height="600" fill="white" transform="translate(49 93)"/>
</clipPath>
</defs>
</svg>
